<svg xmlns="http://www.w3.org/2000/svg" viewBox="0 0 194 288"><title>Size Limit logo</title><path fill="#fad117" d="M19.5.5h155c10.493 0 19 8.507 19 19v249c0 10.493-8.507 19-19 19h-155c-10.493 0-19-8.507-19-19v-249c0-10.493 8.507-19 19-19z"/><path fill="#fff" d="M11 11h172v266H11z"/><path fill="#000" d="M19 0h156c10.493 0 19 8.507 19 19v250c0 10.493-8.507 19-19 19H19c-10.493 0-19-8.507-19-19V19C0 8.507 8.507 0 19 0zm0 1C9.059 1 1 9.059 1 19v250c0 9.941 8.059 18 18 18h156c9.941 0 18-8.059 18-18V19c0-9.941-8.059-18-18-18H19zm1 4h154c8.284 0 15 6.716 15 15v248c0 8.284-6.716 15-15 15H20c-8.284 0-15-6.716-15-15V20c0-8.284 6.716-15 15-15zm0 7a8 8 0 0 0-8 8v248a8 8 0 0 0 8 8h154a8 8 0 0 0 8-8V20a8 8 0 0 0-8-8H20zm44.605 45.315c0 1.71-1.215 3.105-5.355 3.105-3.87 0-8.145-1.755-10.845-4.725l-3.87 4.905c2.79 3.555 7.47 6.12 14.94 6.12 7.605 0 12.78-4.275 12.78-9.945 0-11.385-18.9-8.415-18.9-13.725 0-1.98 1.665-2.97 5.175-2.97 3.555 0 7.29 1.08 9.72 3.15l2.97-5.265c-2.43-2.475-7.11-4.185-12.42-4.185-8.145 0-13.05 4.59-13.05 9.54 0 12.15 18.855 8.325 18.855 13.995zM77.43 66h7.425V34.5H77.43V66zm13.14-24.975h16.335L89.805 60.6V66h27.18v-6.525H99.39L116.58 39.9v-5.4H90.57v6.525zM121.71 66h25.335v-6.075h-17.91V52.95h16.335V47.1h-16.335v-6.525h17.505V34.5h-24.93V66zm-84.335 45h24.84v-6.75H44.8V79.5h-7.425V111zm28.665 0h7.425V79.5H66.04V111zm14.4 0h6.975V95.745c0-1.845-.045-4.32-.135-5.22h.18c1.035 1.62 1.53 2.43 2.385 3.555l6.57 8.73h1.665l6.48-8.73c.855-1.17 1.44-2.16 2.16-3.42h.18c-.09 1.035-.09 3.645-.09 5.04V111h6.975V79.5h-6.12l-10.17 14.445L86.785 79.5H80.44V111zm40.32 0h7.425V79.5h-7.425V111zm11.25-24.975h10.17V111h7.425V86.025h10.215V79.5h-27.81v6.525zM75.25 252h4.95v-8.07l.87-.96L88.6 252h6.36l-9.12-11.01 9.12-9.99h-6.48l-8.28 9.69V231h-4.95v21zm26.81 0v-21h9.69c5.46 0 7.53 2.22 7.53 5.34 0 2.04-1.17 3.84-3.24 4.68 2.46.39 3.93 2.16 3.93 4.77 0 4.38-3.57 6.21-8.46 6.21h-9.45zm9.12-8.82h-4.17v4.92h3.72c2.85 0 4.14-.66 4.14-2.49 0-1.62-.99-2.43-3.69-2.43zm-.51-8.28h-3.66v4.68h4.26c1.92 0 2.91-1.05 2.91-2.37 0-1.62-.9-2.31-3.51-2.31zM74.45 211v-70.1h-8.9l-28.1 13.9 5 10.6 16.5-7.7V211h15.5zm14.5-35.1c0-20.6 11.6-35.8 32-35.8 20.1 0 32.1 15.2 32.1 35.8 0 20.7-11.8 35.8-31.9 35.8-20.6 0-32.2-15.1-32.2-35.8zm15.5 0c0 14.2 6.3 22.3 16.7 22.3 11.3 0 16.4-8.1 16.4-22.3 0-14.3-5.5-22.3-16.6-22.3-10.4 0-16.5 8.2-16.5 22.3z"/></svg>